<svg width="42" height="40" viewBox="0 0 42 40" fill="none" xmlns="http://www.w3.org/2000/svg">
<path d="M1.66667 0C0.699869 0 0 0.699869 0 1.66667V31.6667C0 32.6335 0.699869 33.3333 1.66667 33.3333H40C40.9668 33.3333 41.6667 32.6335 41.6667 31.6667V1.66667C41.6667 0.699869 40.9668 0 40 0H1.66667ZM5 4.16667H36.6667C37.168 4.16667 37.5 4.4987 37.5 5V25C37.5 25.5013 37.168 25.8333 36.6667 25.8333H5C4.4987 25.8333 4.16667 25.5013 4.16667 25V5C4.16667 4.4987 4.4987 4.16667 5 4.16667ZM20.8333 7.5C19.4987 7.5 18.3333 9.08203 14.1667 10C14.1667 19.4173 20.8333 22.5 20.8333 22.5C20.8333 22.5 27.5 19.1667 27.5 10C23.3333 9.08203 22.168 7.5 20.8333 7.5ZM35 27.5C35.918 27.5 36.6667 28.2487 36.6667 29.1667C36.6667 30.0846 35.918 30.8333 35 30.8333C34.082 30.8333 33.3333 30.0846 33.3333 29.1667C33.3333 28.2487 34.082 27.5 35 27.5ZM15.8333 34.1667V35.8333H12.4219C11.0677 35.8333 10 36.9303 10 38.3333V40H31.6667V38.3333C31.6667 36.9792 30.5534 35.8333 29.2448 35.8333H25.8333V34.1667H15.8333Z" fill="#866FA1"/>
</svg>
