<svg width="41" height="40" viewBox="0 0 41 40" fill="none" xmlns="http://www.w3.org/2000/svg">
<path d="M20.0102 2.42705e-06C19.8291 2.42705e-06 19.6477 0.0595252 19.4973 0.177504L0.32044 15.1415C-0.0430854 15.425 -0.106348 15.948 0.177135 16.3107C0.460619 16.6742 0.983681 16.7391 1.34637 16.4556L2.50095 15.5551V37.4759C2.50095 37.937 2.87449 38.3097 3.33473 38.3097H27.5158C28.9124 39.3652 30.6417 40 32.5168 40C37.1026 40 40.8546 36.248 40.8546 31.6623C40.8546 28.9517 39.538 26.5398 37.5195 25.0149V15.5551L38.6741 16.4556C38.8266 16.5749 39.0069 16.6331 39.187 16.6331C39.4347 16.6331 39.6807 16.5233 39.8449 16.3123C40.1276 15.9488 40.0627 15.425 39.7 15.1415L33.3506 10.1861V4.1477H28.348V6.28262L20.5232 0.177502C20.3727 0.0595227 20.1914 0 20.0102 0V2.42705e-06ZM15.8413 22.4696H24.1791V36.6649H15.8413V22.4696ZM32.5168 24.9921C36.1854 24.9921 39.187 27.9937 39.187 31.6623C39.187 35.3309 36.1854 38.3325 32.5168 38.3325C28.8482 38.3325 25.8466 35.3309 25.8466 31.6623C25.8466 27.9937 28.8482 24.9921 32.5168 24.9921ZM36.1027 27.8272L31.6 33.079L28.8479 30.9946L27.848 32.3299L31.7661 35.3312L37.3534 28.9102L36.1027 27.8272ZM25.8466 36.634C25.8541 36.644 25.8611 36.6549 25.8694 36.6649H25.8466V36.634Z" fill="#4B69C6"/>
</svg>
