<svg width="35" height="35" viewBox="0 0 35 35" fill="none" xmlns="http://www.w3.org/2000/svg">
<path opacity="0.7" d="M35 3.18182V31.8182C35 33.5761 33.5761 35 31.8182 35H3.18182C1.42386 35 0 33.5761 0 31.8182V3.18182C0 1.42387 1.42386 0 3.18182 0H31.8182C33.5761 0 35 1.42386 35 3.18182ZM19.557 6.82977L10.0116 16.3752C9.38955 16.9973 9.38955 18.0027 10.0116 18.6248L19.557 28.1702C19.8673 28.4805 20.2745 28.6364 20.6818 28.6364C21.0891 28.6364 21.4964 28.4805 21.8066 28.1702C22.4286 27.5482 22.4286 26.5427 21.8066 25.9207L13.3859 17.5L21.8066 9.07932C22.4286 8.45728 22.4286 7.45182 21.8066 6.82978C21.1845 6.20773 20.1791 6.20773 19.557 6.82978L19.557 6.82977Z" fill="#02409F"/>
</svg>
