<svg width="117" height="100" viewBox="0 0 117 100" fill="none" xmlns="http://www.w3.org/2000/svg">
<path d="M50.48 43.648C49.712 43.648 48.952 43.76 48.2 43.984C47.448 44.192 46.712 44.448 45.992 44.752L44.84 41.824C45.688 41.456 46.584 41.168 47.528 40.96C48.472 40.736 49.48 40.624 50.552 40.624C51.816 40.624 52.936 40.824 53.912 41.224C54.904 41.608 55.736 42.184 56.408 42.952C57.096 43.704 57.616 44.632 57.968 45.736C58.336 46.824 58.52 48.064 58.52 49.456C58.52 51.216 58.224 52.76 57.632 54.088C57.04 55.4 56.128 56.424 54.896 57.16C53.68 57.88 52.12 58.24 50.216 58.24C49.24 58.24 48.352 58.168 47.552 58.024C46.768 57.88 45.968 57.656 45.152 57.352V54.304C46.064 54.592 46.904 54.816 47.672 54.976C48.456 55.136 49.232 55.216 50 55.216C50.736 55.216 51.384 55.128 51.944 54.952C52.52 54.76 53 54.488 53.384 54.136C53.784 53.768 54.096 53.312 54.32 52.768C54.544 52.208 54.672 51.568 54.704 50.848H47.264V47.872H54.68C54.664 47.2 54.552 46.608 54.344 46.096C54.136 45.568 53.848 45.128 53.48 44.776C53.112 44.408 52.672 44.128 52.16 43.936C51.664 43.744 51.104 43.648 50.48 43.648ZM76.1141 58H72.4901V50.608H65.6981V58H62.0741V40.864H65.6981V47.584H72.4901V40.864H76.1141V58ZM87.6976 43.648C87.0096 43.648 86.3936 43.784 85.8496 44.056C85.3216 44.328 84.8736 44.72 84.5056 45.232C84.1376 45.728 83.8576 46.336 83.6656 47.056C83.4896 47.776 83.4016 48.584 83.4016 49.48C83.4016 50.696 83.5456 51.736 83.8336 52.6C84.1376 53.448 84.6096 54.096 85.2496 54.544C85.8896 54.992 86.7056 55.216 87.6976 55.216C88.4016 55.216 89.0976 55.136 89.7856 54.976C90.4896 54.816 91.2496 54.592 92.0656 54.304V57.352C91.3136 57.656 90.5696 57.88 89.8336 58.024C89.0976 58.168 88.2736 58.24 87.3616 58.24C85.6016 58.24 84.1456 57.88 82.9936 57.16C81.8576 56.424 81.0176 55.4 80.4736 54.088C79.9296 52.76 79.6576 51.216 79.6576 49.456C79.6576 48.16 79.8336 46.976 80.1856 45.904C80.5376 44.816 81.0496 43.88 81.7216 43.096C82.4096 42.312 83.2496 41.704 84.2416 41.272C85.2496 40.84 86.4016 40.624 87.6976 40.624C88.5456 40.624 89.3936 40.736 90.2416 40.96C91.1056 41.168 91.9296 41.456 92.7136 41.824L91.5376 44.776C90.8976 44.472 90.2496 44.208 89.5936 43.984C88.9536 43.76 88.3216 43.648 87.6976 43.648ZM106.195 58L104.947 53.92H98.7069L97.4589 58H93.5469L99.5949 40.792H104.035L110.107 58H106.195ZM102.835 46.888C102.755 46.616 102.651 46.272 102.523 45.856C102.395 45.44 102.267 45.016 102.139 44.584C102.011 44.152 101.907 43.776 101.827 43.456C101.747 43.776 101.635 44.176 101.491 44.656C101.363 45.12 101.235 45.568 101.107 46C100.995 46.416 100.907 46.712 100.843 46.888L99.6189 50.872H104.083L102.835 46.888Z" fill="#E6F2FF"/>
<path d="M14.4745 30.0005C14.2708 30.0089 14.0812 30.0986 13.9481 30.2527L9.81903 35.0222H2.29663C2.25418 35.0166 2.21455 35.011 2.1721 35.011C2.13814 35.0138 2.10135 35.0166 2.06739 35.0222H0.734413C0.474044 35.0194 0.230657 35.1539 0.0976411 35.3781C-0.0325444 35.6023 -0.0325444 35.8769 0.0976411 36.1011C0.230655 36.3252 0.474044 36.4598 0.734413 36.4569H1.45892V37.8917C1.45609 38.1495 1.59193 38.3905 1.81834 38.5222C2.04475 38.6511 2.3221 38.6511 2.5485 38.5222C2.77491 38.3905 2.91076 38.1495 2.90793 37.8917V36.4569H3.41168L9.42847 40.4278V44.3481H2.29662C2.25417 44.3425 2.21455 44.3369 2.1721 44.3369C2.13814 44.3397 2.10135 44.3425 2.06739 44.3481H0.734411C0.474042 44.3453 0.230655 44.4798 0.0976391 44.704C-0.0325464 44.9282 -0.0325464 45.2028 0.0976391 45.427C0.230653 45.6512 0.474042 45.7857 0.734411 45.7829H1.45892V47.2177C1.45609 47.4755 1.59193 47.7165 1.81834 47.8482C2.04475 47.9771 2.32209 47.9771 2.5485 47.8482C2.77491 47.7165 2.91075 47.4755 2.90792 47.2177V45.7829H3.41168L9.42847 49.7537V54.1589L3.7711 61.8595C3.58432 62.1145 3.58715 62.4592 3.77676 62.7114C3.96921 62.9636 4.30033 63.0645 4.60032 62.958L14.5 59.458L24.3997 62.958C24.6997 63.0645 25.0308 62.9636 25.2232 62.7114C25.4129 62.4592 25.4157 62.1145 25.2289 61.8595L19.5715 54.1589V49.7537L25.5855 45.7829H26.0921V47.2177C26.0892 47.4755 26.2251 47.7165 26.4515 47.8482C26.6779 47.9771 26.9553 47.9771 27.1817 47.8482C27.4081 47.7165 27.5439 47.4755 27.5411 47.2177V45.7829H28.2656C28.526 45.7857 28.7693 45.6512 28.9024 45.427C29.0325 45.2028 29.0325 44.9282 28.9024 44.704C28.7693 44.4798 28.526 44.3453 28.2656 44.3481H26.9298C26.8873 44.3425 26.8477 44.3369 26.8053 44.3369C26.7713 44.3397 26.7345 44.3425 26.7005 44.3481H19.5715V40.4278L25.5855 36.4569H26.0921V37.8917C26.0892 38.1495 26.2251 38.3905 26.4515 38.5222C26.6779 38.6511 26.9553 38.6511 27.1817 38.5222C27.4081 38.3905 27.5439 38.1495 27.5411 37.8917V36.4569H28.2656C28.526 36.4598 28.7693 36.3252 28.9024 36.1011C29.0325 35.8769 29.0325 35.6023 28.9024 35.3781C28.7693 35.1539 28.526 35.0194 28.2656 35.0222H26.9298C26.8873 35.0166 26.8477 35.011 26.8053 35.011C26.7713 35.0138 26.7345 35.0166 26.7005 35.0222H19.181L15.0519 30.2527C14.9075 30.0846 14.6953 29.9921 14.4745 30.0005H14.4745ZM14.5 31.822L17.2735 35.0222H11.7265L14.5 31.822ZM6.02387 36.457H9.42847V38.7016L6.02387 36.457ZM11.8058 36.457H17.1943L14.5 39.3461L11.8058 36.457ZM19.5715 36.457H22.9761L19.5715 38.7016V36.457ZM10.8775 37.5751L13.5151 40.4025L10.8775 43.23V37.5751ZM18.1225 37.5751V43.23L15.4849 40.4025L18.1225 37.5751ZM14.5 41.459L17.1914 44.3481H11.8086L14.5 41.459ZM6.02387 45.7829H9.42847V48.0275L6.02387 45.7829ZM11.8086 45.7829H17.1914L14.5 48.672L11.8086 45.7829ZM19.5715 45.7829H22.9761L19.5715 48.0275V45.7829ZM10.8775 46.901L13.5151 49.7285L10.8775 52.556V46.901ZM18.1225 46.901V52.556L15.4849 49.7285L18.1225 46.901ZM14.5 50.7849L17.8424 54.3718L14.5 57.6813L11.1577 54.3718L14.5 50.7849ZM10.2407 55.4928L13.1783 58.4015L6.32386 60.8255L10.2407 55.4928ZM18.7593 55.4928L22.6762 60.8255L15.8217 58.4015L18.7593 55.4928Z" fill="#3498DB"/>
</svg>
