<svg width="137" height="37" viewBox="0 0 137 37" fill="none" xmlns="http://www.w3.org/2000/svg">
<path d="M50.48 12.648C49.712 12.648 48.952 12.76 48.2 12.984C47.448 13.192 46.712 13.448 45.992 13.752L44.84 10.824C45.688 10.456 46.584 10.168 47.528 9.96C48.472 9.736 49.48 9.624 50.552 9.624C53.064 9.624 55.016 10.4 56.408 11.952C57.816 13.488 58.52 15.656 58.52 18.456C58.52 20.216 58.224 21.76 57.632 23.088C57.04 24.4 56.128 25.424 54.896 26.16C53.68 26.88 52.12 27.24 50.216 27.24C49.24 27.24 48.352 27.168 47.552 27.024C46.768 26.88 45.968 26.656 45.152 26.352V23.304C46.064 23.592 46.904 23.816 47.672 23.976C48.456 24.136 49.232 24.216 50 24.216C51.472 24.216 52.608 23.856 53.408 23.136C54.208 22.4 54.64 21.304 54.704 19.848H47.264V16.872H54.68C54.632 15.544 54.232 14.512 53.48 13.776C52.728 13.024 51.728 12.648 50.48 12.648ZM76.1141 27H72.4901V19.608H65.6981V27H62.0741V9.864H65.6981V16.584H72.4901V9.864H76.1141V27ZM87.6976 12.648C86.3056 12.648 85.2416 13.168 84.5056 14.208C83.7696 15.248 83.4016 16.672 83.4016 18.48C83.4016 20.304 83.7376 21.72 84.4096 22.728C85.0976 23.72 86.1936 24.216 87.6976 24.216C88.3856 24.216 89.0816 24.136 89.7856 23.976C90.4896 23.816 91.2496 23.592 92.0656 23.304V26.352C91.3136 26.656 90.5696 26.88 89.8336 27.024C89.0976 27.168 88.2736 27.24 87.3616 27.24C85.5856 27.24 84.1296 26.88 82.9936 26.16C81.8576 25.424 81.0176 24.4 80.4736 23.088C79.9296 21.76 79.6576 20.216 79.6576 18.456C79.6576 16.728 79.9696 15.2 80.5936 13.872C81.2176 12.544 82.1216 11.504 83.3056 10.752C84.5056 10 85.9696 9.624 87.6976 9.624C88.5456 9.624 89.3936 9.736 90.2416 9.96C91.1056 10.168 91.9296 10.456 92.7136 10.824L91.5376 13.776C90.8976 13.472 90.2496 13.208 89.5936 12.984C88.9536 12.76 88.3216 12.648 87.6976 12.648ZM106.195 27L104.947 22.92H98.7069L97.4589 27H93.5469L99.5949 9.792H104.035L110.107 27H106.195ZM104.083 19.872L102.835 15.888C102.755 15.616 102.651 15.272 102.523 14.856C102.395 14.44 102.267 14.016 102.139 13.584C102.011 13.152 101.907 12.776 101.827 12.456C101.747 12.776 101.635 13.176 101.491 13.656C101.363 14.12 101.235 14.568 101.107 15C100.995 15.416 100.907 15.712 100.843 15.888L99.6189 19.872H104.083Z" fill="#02409F"/>
<path d="M14.4745 0.000527198C14.2708 0.00893348 14.0812 0.0986061 13.9481 0.252732L9.81903 5.02219H2.29663C2.25418 5.01659 2.21455 5.01098 2.1721 5.01098C2.13814 5.01378 2.10135 5.01659 2.06739 5.02219H0.734413C0.474044 5.01939 0.230657 5.1539 0.0976411 5.37808C-0.0325444 5.60226 -0.0325444 5.87688 0.0976411 6.10106C0.230655 6.32524 0.474044 6.45975 0.734413 6.45695H1.45892V7.89171C1.45609 8.14952 1.59193 8.39051 1.81834 8.52222C2.04475 8.65112 2.3221 8.65112 2.5485 8.52222C2.77491 8.39051 2.91076 8.14952 2.90793 7.89171V6.45695H3.41168L9.42847 10.4278V14.3481H2.29662C2.25417 14.3425 2.21455 14.3369 2.1721 14.3369C2.13814 14.3397 2.10135 14.3425 2.06739 14.3481H0.734411C0.474042 14.3453 0.230655 14.4798 0.0976391 14.704C-0.0325464 14.9282 -0.0325464 15.2028 0.0976391 15.427C0.230653 15.6512 0.474042 15.7857 0.734411 15.7829H1.45892V17.2177C1.45609 17.4755 1.59193 17.7165 1.81834 17.8482C2.04475 17.9771 2.32209 17.9771 2.5485 17.8482C2.77491 17.7165 2.91075 17.4755 2.90792 17.2177V15.7829H3.41168L9.42847 19.7537V24.1589L3.7711 31.8595C3.58432 32.1145 3.58715 32.4592 3.77676 32.7114C3.96921 32.9636 4.30033 33.0645 4.60032 32.958L14.5 29.458L24.3997 32.958C24.6997 33.0645 25.0308 32.9636 25.2232 32.7114C25.4129 32.4592 25.4157 32.1145 25.2289 31.8595L19.5715 24.1589V19.7537L25.5855 15.7829H26.0921V17.2177C26.0892 17.4755 26.2251 17.7165 26.4515 17.8482C26.6779 17.9771 26.9553 17.9771 27.1817 17.8482C27.4081 17.7165 27.5439 17.4755 27.5411 17.2177V15.7829H28.2656C28.526 15.7857 28.7693 15.6512 28.9024 15.427C29.0325 15.2028 29.0325 14.9282 28.9024 14.704C28.7693 14.4798 28.526 14.3453 28.2656 14.3481H26.9298C26.8873 14.3425 26.8477 14.3369 26.8053 14.3369C26.7713 14.3397 26.7345 14.3425 26.7005 14.3481H19.5715V10.4278L25.5855 6.45695H26.0921V7.89171C26.0892 8.14952 26.2251 8.39051 26.4515 8.52222C26.6779 8.65112 26.9553 8.65112 27.1817 8.52222C27.4081 8.39051 27.5439 8.14952 27.5411 7.89171V6.45695H28.2656C28.526 6.45975 28.7693 6.32524 28.9024 6.10106C29.0325 5.87688 29.0325 5.60226 28.9024 5.37808C28.7693 5.1539 28.526 5.01939 28.2656 5.02219H26.9298C26.8873 5.01659 26.8477 5.01098 26.8053 5.01098C26.7713 5.01378 26.7345 5.01659 26.7005 5.02219H19.181L15.0519 0.252732C14.9075 0.0845963 14.6953 -0.00787908 14.4745 0.000527198H14.4745ZM14.5 1.822L17.2735 5.02219H11.7265L14.5 1.822ZM6.02387 6.45695H9.42847V8.70157L6.02387 6.45695ZM11.8058 6.45695H17.1943L14.5 9.34609L11.8058 6.45695ZM19.5715 6.45695H22.9761L19.5715 8.70157V6.45695ZM10.8775 7.57505L13.5151 10.4025L10.8775 13.23V7.57505ZM18.1225 7.57505V13.23L15.4849 10.4025L18.1225 7.57505ZM14.5 11.459L17.1914 14.3481H11.8086L14.5 11.459ZM6.02387 15.7829H9.42847V18.0275L6.02387 15.7829ZM11.8086 15.7829H17.1914L14.5 18.672L11.8086 15.7829ZM19.5715 15.7829H22.9761L19.5715 18.0275V15.7829ZM10.8775 16.901L13.5151 19.7285L10.8775 22.556V16.901ZM18.1225 16.901V22.556L15.4849 19.7285L18.1225 16.901ZM14.5 20.7849L17.8424 24.3718L14.5 27.6813L11.1577 24.3718L14.5 20.7849ZM10.2407 25.4928L13.1783 28.4015L6.32386 30.8255L10.2407 25.4928ZM18.7593 25.4928L22.6762 30.8255L15.8217 28.4015L18.7593 25.4928Z" fill="#3498DB"/>
</svg>
