<svg width="615" height="186" viewBox="0 0 615 186" fill="none" xmlns="http://www.w3.org/2000/svg">
<rect width="615" height="186" rx="30" fill="#4170B7"/>
<path fill-rule="evenodd" clip-rule="evenodd" d="M103.041 41H83.5827H81.1262V43.4503V43.4672V43.4842V43.5013V43.5184V43.5356V43.5529V43.5703V43.5877V43.6052V43.6227V43.6403V43.658V43.6758V43.6936V43.7115V43.7294V43.7474V43.7655V43.7836V43.8018V43.8201V43.8385V43.8569V43.8753V43.8938V43.9124V43.9311V43.9498V43.9685V43.9874V44.0062V44.0252V44.0442V44.0633V44.0824V44.1016V44.1208V44.1401V44.1594V44.1789V44.1983V44.2178V44.2374V44.257V44.2767V44.2965V44.3163V44.3361V44.356V44.376V44.396V44.416V44.4362V44.4563V44.4765V44.4968V44.5171V44.5375V44.5579V44.5784V44.5989V44.6194V44.64V44.6607V44.6814V44.7022V44.723V44.7438V44.7647V44.7856V44.8066V44.8276V44.8487V44.8698V44.891V44.9122V44.9334V44.9547V44.976V44.9974V45.0188V45.0403V45.0618V45.0833V45.1049V45.1265V45.1482V45.1699V45.1916V45.2134V45.2352V45.257V45.2789V45.3008V45.3228V45.3448V45.3668V45.3889V45.411V45.4331V45.4553V45.4775V45.4997V45.522V45.5443V45.5666V45.589V45.6114V45.6338V45.6563V45.6787V45.7013V45.7238V45.7464V45.769V45.7916V45.8143V45.837V45.8597V45.8825V45.9052V45.928V45.9509V45.9737V45.9966V46.0195V46.0424V46.0654V46.0884V46.1114V46.1344V46.1574V46.1805V46.2036V46.2267V46.2498V46.273V46.2962V46.3194V46.3426V46.3658V46.3891V46.4123V46.4356V46.4589V46.4823V46.5056V46.529V46.5523V46.5757V46.5992V46.6226V46.646V46.6695V46.6929V46.7164V46.7399V46.7634V46.787V46.8105V46.834V46.8576V46.8812V46.9048V46.9283V46.9519V46.9756V46.9992V47.0228V47.0465V47.0701V47.0938V47.1174V47.1411V47.1648V47.1885V47.2122V47.2359V47.2596V47.2833V47.307V47.3307V47.3544V47.3782V47.4019V47.4256V47.4494V47.4731V47.4968V47.5206V47.5443V47.5681V47.5918V47.6155V47.6393V47.663V47.6868V47.7105V47.7342V47.758V47.7817V47.8054V47.8292V47.8529V47.8766V47.9003V47.924V47.9478V47.9715V47.9951V48.0188V48.0425V48.0662V48.0899V48.1135V48.1372V48.1608V48.1844V48.2081V48.2317V48.2553V48.2789V48.3025V48.326V48.3496V48.3732V48.3967V48.4202V48.4437V48.4672V48.4907V48.5142V48.5377V48.5611V48.5845V48.6079V48.6313V48.6547V48.6781V48.7014V48.7248V48.7481V48.7714V48.7947V48.8179V48.8412V48.8644V48.8876V48.9108V48.9339V48.957V48.9802V49.0033V49.0263V49.0494V49.0724V49.0954V49.1184V49.1414V49.1643V49.1872V49.2101V49.233V49.2558V49.2786V49.3014V49.3241V49.3469V49.3696V49.3922V49.4149V49.4375V49.4601V49.4826V49.5052V49.5277V49.5501V49.5726V49.595V49.6173V49.6397V49.662V49.6843V49.7065V49.7287V49.7509V49.773V49.7951V49.8172V49.8393V49.8613V49.8832V49.9051V49.927V49.9489V49.9707V49.9925V50.0142V50.0359V50.0576V50.0792V50.1008V50.1224V50.1439V50.1653V50.1868V50.2081V50.2295V50.2508V50.272V50.2933V50.3144V50.3355V50.3566V50.3777V50.3987V50.4196V50.4405V50.4614V50.4822V50.5029V50.5237V50.5443V50.5649V50.5855V50.606V50.6265V50.6469V50.6673V50.6877V50.7079V50.7282V50.7483V50.7685V50.7885V50.8085V50.8285V50.8484V50.8683V50.8881V50.9079V50.9276V50.9472V50.9668V50.9863V51.0058V51.0252V51.0446V51.0639V51.0832V51.1023V51.1215V51.1406V51.1596V51.1785V51.1974V51.2163V51.2351V51.2538V51.2724V51.291V51.3096V51.3281V51.3465V51.3648V51.3831V51.4013V51.4195V51.4376V51.4556V51.4736V51.4915V51.5093V51.5271V51.5448V51.5591H63.7043C54.4788 51.5591 47 59.0189 47 68.2211V106.255C47 115.457 54.4788 122.917 63.7043 122.917H76.2662V118.016H63.7043C57.1922 118.016 51.913 112.751 51.913 106.255V68.2211C51.913 61.7254 57.1922 56.4597 63.7043 56.4597H83.5827H85.2086V45.0721H100.684L103.041 41ZM143.296 122.917H131.547V118.016H143.296C149.808 118.016 155.087 112.751 155.087 106.255V68.2211C155.087 61.7254 149.808 56.4597 143.296 56.4597H123.824H122.604V45.0721H106.316L103.959 41H124.23H126.687V43.4503V51.5591H143.296C152.521 51.5591 160 59.0189 160 68.2211V106.255C160 115.457 152.521 122.917 143.296 122.917ZM71.3885 144C71.3885 144 81.805 129.374 82.3633 118.863C82.8542 109.619 77.4856 100.212 77.4856 100.212V75.8857H92.9317V69.804L103.5 53.5863L114.475 69.804V75.8857H129.108V100.212C129.108 100.212 124.662 110.366 124.637 117.241C124.594 128.72 136.831 144 136.831 144H112.849V135.486C112.849 135.486 113.255 126.971 103.906 126.971C94.5575 126.971 94.964 135.486 94.964 135.486V144H71.3885Z" fill="white"/>
<path d="M195.918 72H192.842V64.1021H184.895V72H181.807V54.2266H184.895V61.624H192.842V54.2266H195.918V72ZM210.469 54.2266H213.557V72H210.469V59.3413L202.668 72H199.58V54.2266H202.668V66.8975L210.469 54.2266ZM231.282 64.334H229.292V72H226.216V64.334H224.141L219.783 72H215.938L221.663 62.5396L216.316 54.2266H220.051L224.299 61.6484H226.216V54.2266H229.292V61.6484H231.123L235.334 54.2266H239.058L233.76 62.5151L239.436 72H235.603L231.282 64.334ZM251.716 64.0654H244.417V69.5342H252.949V72H241.328V54.2266H252.864V56.7168H244.417V61.624H251.716V64.0654ZM266.829 56.7168H258.625V72H255.549V54.2266H266.829V56.7168ZM282.759 63.5771C282.759 65.3187 282.458 66.8486 281.855 68.167C281.253 69.4772 280.391 70.4863 279.268 71.1943C278.153 71.8942 276.867 72.2441 275.41 72.2441C273.97 72.2441 272.684 71.8942 271.553 71.1943C270.43 70.4863 269.559 69.4813 268.94 68.1792C268.33 66.8771 268.021 65.3757 268.013 63.6748V62.6738C268.013 60.9404 268.318 59.4105 268.928 58.084C269.547 56.7575 270.413 55.7443 271.528 55.0444C272.651 54.3364 273.937 53.9824 275.386 53.9824C276.834 53.9824 278.116 54.3324 279.231 55.0322C280.354 55.724 281.221 56.7249 281.831 58.0352C282.441 59.3372 282.751 60.855 282.759 62.5884V63.5771ZM279.67 62.6494C279.67 60.68 279.296 59.1704 278.547 58.1206C277.807 57.0708 276.753 56.5459 275.386 56.5459C274.051 56.5459 273.005 57.0708 272.249 58.1206C271.5 59.1623 271.117 60.6393 271.101 62.5518V63.5771C271.101 65.5303 271.479 67.0399 272.236 68.106C273.001 69.172 274.059 69.7051 275.41 69.7051C276.777 69.7051 277.827 69.1842 278.56 68.1426C279.3 67.1009 279.67 65.5791 279.67 63.5771V62.6494ZM288.923 65.396V72H285.835V54.2266H292.634C294.62 54.2266 296.195 54.7433 297.358 55.7769C298.53 56.8104 299.116 58.1776 299.116 59.8784C299.116 61.62 298.542 62.9749 297.395 63.9434C296.256 64.9118 294.657 65.396 292.598 65.396H288.923ZM288.923 62.918H292.634C293.733 62.918 294.571 62.6616 295.149 62.1489C295.727 61.6281 296.016 60.8794 296.016 59.9028C296.016 58.9425 295.723 58.1776 295.137 57.6079C294.551 57.0301 293.745 56.7331 292.72 56.7168H288.923V62.918ZM316.011 63.5771C316.011 65.3187 315.71 66.8486 315.107 68.167C314.505 69.4772 313.643 70.4863 312.52 71.1943C311.405 71.8942 310.119 72.2441 308.662 72.2441C307.222 72.2441 305.936 71.8942 304.805 71.1943C303.682 70.4863 302.811 69.4813 302.192 68.1792C301.582 66.8771 301.273 65.3757 301.265 63.6748V62.6738C301.265 60.9404 301.57 59.4105 302.18 58.084C302.799 56.7575 303.665 55.7443 304.78 55.0444C305.903 54.3364 307.189 53.9824 308.638 53.9824C310.086 53.9824 311.368 54.3324 312.483 55.0322C313.606 55.724 314.473 56.7249 315.083 58.0352C315.693 59.3372 316.003 60.855 316.011 62.5884V63.5771ZM312.922 62.6494C312.922 60.68 312.548 59.1704 311.799 58.1206C311.059 57.0708 310.005 56.5459 308.638 56.5459C307.303 56.5459 306.257 57.0708 305.5 58.1206C304.752 59.1623 304.369 60.6393 304.353 62.5518V63.5771C304.353 65.5303 304.731 67.0399 305.488 68.106C306.253 69.172 307.311 69.7051 308.662 69.7051C310.029 69.7051 311.079 69.1842 311.812 68.1426C312.552 67.1009 312.922 65.5791 312.922 63.5771V62.6494ZM335.017 76.3701H332.087V72H320.381V76.3701H317.402L317.305 69.5342H318.733C319.441 68.8506 320.007 67.8577 320.43 66.5557C320.853 65.2454 321.125 63.7643 321.248 62.1123L321.711 54.2266H332.917V69.5342H335.176L335.017 76.3701ZM322.224 69.5342H329.841V56.7168H324.653L324.36 61.7217C324.141 65.0664 323.429 67.6706 322.224 69.5342ZM350.764 66.2139C350.585 68.11 349.885 69.5911 348.665 70.6572C347.444 71.7152 345.82 72.2441 343.794 72.2441C342.378 72.2441 341.129 71.9105 340.046 71.2432C338.972 70.5677 338.142 69.6115 337.556 68.3745C336.97 67.1375 336.665 65.7012 336.641 64.0654V62.4053C336.641 60.7288 336.938 59.2518 337.532 57.9741C338.126 56.6965 338.976 55.7118 340.083 55.02C341.198 54.3283 342.484 53.9824 343.94 53.9824C345.902 53.9824 347.48 54.5155 348.677 55.5815C349.873 56.6476 350.569 58.1532 350.764 60.0981H347.688C347.542 58.8205 347.167 57.9009 346.565 57.3394C345.971 56.7697 345.096 56.4849 343.94 56.4849C342.598 56.4849 341.564 56.9772 340.84 57.9619C340.124 58.9385 339.757 60.3748 339.741 62.271V63.8457C339.741 65.7663 340.083 67.2311 340.767 68.2402C341.458 69.2493 342.467 69.7539 343.794 69.7539C345.007 69.7539 345.918 69.4813 346.528 68.936C347.139 68.3908 347.525 67.4834 347.688 66.2139H350.764ZM358.796 64.3828H356.697V72H353.621V54.2266H356.697V61.6973H358.394L363.618 54.2266H367.402L361.299 62.7349L367.939 72H364.229L358.796 64.3828ZM383.442 63.5771C383.442 65.3187 383.141 66.8486 382.539 68.167C381.937 69.4772 381.074 70.4863 379.951 71.1943C378.836 71.8942 377.55 72.2441 376.094 72.2441C374.653 72.2441 373.368 71.8942 372.236 71.1943C371.113 70.4863 370.243 69.4813 369.624 68.1792C369.014 66.8771 368.704 65.3757 368.696 63.6748V62.6738C368.696 60.9404 369.001 59.4105 369.612 58.084C370.23 56.7575 371.097 55.7443 372.212 55.0444C373.335 54.3364 374.621 53.9824 376.069 53.9824C377.518 53.9824 378.8 54.3324 379.915 55.0322C381.038 55.724 381.904 56.7249 382.515 58.0352C383.125 59.3372 383.434 60.855 383.442 62.5884V63.5771ZM380.354 62.6494C380.354 60.68 379.98 59.1704 379.231 58.1206C378.49 57.0708 377.437 56.5459 376.069 56.5459C374.735 56.5459 373.689 57.0708 372.932 58.1206C372.183 59.1623 371.801 60.6393 371.785 62.5518V63.5771C371.785 65.5303 372.163 67.0399 372.92 68.106C373.685 69.172 374.743 69.7051 376.094 69.7051C377.461 69.7051 378.511 69.1842 379.243 68.1426C379.984 67.1009 380.354 65.5791 380.354 63.5771V62.6494ZM396.907 64.0654H389.607V69.5342H398.14V72H386.519V54.2266H398.054V56.7168H389.607V61.624H396.907V64.0654ZM195.918 101H192.842V93.1021H184.895V101H181.807V83.2266H184.895V90.624H192.842V83.2266H195.918V101ZM209.749 96.8618H202.864L201.423 101H198.213L204.927 83.2266H207.698L214.424 101H211.201L209.749 96.8618ZM203.73 94.3716H208.882L206.306 86.9985L203.73 94.3716ZM222.847 92.5161L226.411 83.2266H229.841L223.652 97.9727L223.091 99.0835C222.277 100.532 220.959 101.256 219.136 101.256L217.866 101.183L217.891 98.7417C218.086 98.7743 218.432 98.7905 218.928 98.7905C219.807 98.7905 220.426 98.4162 220.784 97.6675L221.418 96.166L215.339 83.2266H218.708L222.847 92.5161ZM245.796 83.2266V101H242.72V94.0054C241.401 94.339 240.026 94.5059 238.594 94.5059C236.47 94.5059 234.862 94.0379 233.772 93.1021C232.681 92.1662 232.132 90.7542 232.124 88.8662V83.2266H235.2V88.8906C235.208 90.0218 235.469 90.8275 235.981 91.3076C236.494 91.7878 237.365 92.0278 238.594 92.0278C240.01 92.0278 241.385 91.8569 242.72 91.5151V83.2266H245.796ZM263.618 101H260.542V93.1021H252.595V101H249.507V83.2266H252.595V90.624H260.542V83.2266H263.618V101ZM281.465 92.5771C281.465 94.3187 281.164 95.8486 280.562 97.167C279.959 98.4772 279.097 99.4863 277.974 100.194C276.859 100.894 275.573 101.244 274.116 101.244C272.676 101.244 271.39 100.894 270.259 100.194C269.136 99.4863 268.265 98.4813 267.646 97.1792C267.036 95.8771 266.727 94.3757 266.719 92.6748V91.6738C266.719 89.9404 267.024 88.4105 267.634 87.084C268.253 85.7575 269.119 84.7443 270.234 84.0444C271.357 83.3364 272.643 82.9824 274.092 82.9824C275.54 82.9824 276.822 83.3324 277.937 84.0322C279.06 84.724 279.927 85.7249 280.537 87.0352C281.147 88.3372 281.457 89.855 281.465 91.5884V92.5771ZM278.376 91.6494C278.376 89.68 278.002 88.1704 277.253 87.1206C276.513 86.0708 275.459 85.5459 274.092 85.5459C272.757 85.5459 271.711 86.0708 270.955 87.1206C270.206 88.1623 269.823 89.6393 269.807 91.5518V92.5771C269.807 94.5303 270.186 96.0399 270.942 97.106C271.707 98.172 272.765 98.7051 274.116 98.7051C275.483 98.7051 276.533 98.1842 277.266 97.1426C278.006 96.1009 278.376 94.5791 278.376 92.5771V91.6494ZM290.01 94.6401H283.601V92.2476H290.01V94.6401ZM306.807 101H303.73V85.7168H295.906V101H292.83V83.2266H306.807V101ZM313.63 94.396V101H310.542V83.2266H317.341C319.327 83.2266 320.902 83.7433 322.065 84.7769C323.237 85.8104 323.823 87.1776 323.823 88.8784C323.823 90.62 323.25 91.9749 322.102 92.9434C320.963 93.9118 319.364 94.396 317.305 94.396H313.63ZM313.63 91.918H317.341C318.44 91.918 319.278 91.6616 319.856 91.1489C320.434 90.6281 320.723 89.8794 320.723 88.9028C320.723 87.9425 320.43 87.1776 319.844 86.6079C319.258 86.0301 318.452 85.7331 317.427 85.7168H313.63V91.918ZM340.718 92.5771C340.718 94.3187 340.417 95.8486 339.814 97.167C339.212 98.4772 338.35 99.4863 337.227 100.194C336.112 100.894 334.826 101.244 333.369 101.244C331.929 101.244 330.643 100.894 329.512 100.194C328.389 99.4863 327.518 98.4813 326.899 97.1792C326.289 95.8771 325.98 94.3757 325.972 92.6748V91.6738C325.972 89.9404 326.277 88.4105 326.887 87.084C327.506 85.7575 328.372 84.7443 329.487 84.0444C330.61 83.3364 331.896 82.9824 333.345 82.9824C334.793 82.9824 336.075 83.3324 337.19 84.0322C338.313 84.724 339.18 85.7249 339.79 87.0352C340.4 88.3372 340.71 89.855 340.718 91.5884V92.5771ZM337.629 91.6494C337.629 89.68 337.255 88.1704 336.506 87.1206C335.766 86.0708 334.712 85.5459 333.345 85.5459C332.01 85.5459 330.964 86.0708 330.208 87.1206C329.459 88.1623 329.076 89.6393 329.06 91.5518V92.5771C329.06 94.5303 329.438 96.0399 330.195 97.106C330.96 98.172 332.018 98.7051 333.369 98.7051C334.736 98.7051 335.786 98.1842 336.519 97.1426C337.259 96.1009 337.629 94.5791 337.629 92.5771V91.6494ZM354.683 83.2266H357.771V101H354.683V88.3413L346.882 101H343.794V83.2266H346.882V95.8975L354.683 83.2266ZM370.356 88.0728C370.356 87.2752 370.055 86.6405 369.453 86.1685C368.851 85.6965 368.033 85.4604 367 85.4604C366.112 85.4604 365.372 85.6965 364.778 86.1685C364.184 86.6323 363.887 87.2345 363.887 87.9751H360.811C360.811 87.0067 361.079 86.144 361.616 85.3872C362.153 84.6304 362.898 84.0444 363.85 83.6294C364.802 83.2062 365.852 82.9946 367 82.9946C369.034 82.9946 370.613 83.4382 371.736 84.3252C372.867 85.2122 373.433 86.4533 373.433 88.0483C373.433 88.854 373.188 89.5946 372.7 90.27C372.212 90.9455 371.528 91.4785 370.649 91.8691C371.642 92.2109 372.399 92.7318 372.92 93.4316C373.449 94.1234 373.713 94.986 373.713 96.0195C373.713 97.6146 373.103 98.8841 371.882 99.8281C370.662 100.764 369.034 101.232 367 101.232C365.746 101.232 364.611 101.008 363.594 100.561C362.585 100.113 361.824 99.5026 361.311 98.7295C360.806 97.9564 360.554 97.0693 360.554 96.0684H363.63C363.63 96.8333 363.948 97.4803 364.583 98.0093C365.217 98.5301 366.023 98.7905 367 98.7905C368.09 98.7905 368.965 98.5342 369.624 98.0215C370.291 97.5088 370.625 96.8415 370.625 96.0195C370.625 95.0186 370.332 94.2943 369.746 93.8467C369.168 93.391 368.318 93.1631 367.195 93.1631H365.107V90.7217H367.085C369.266 90.7217 370.356 89.8387 370.356 88.0728ZM376.582 101V83.2266H382.673C384.683 83.2266 386.213 83.6294 387.263 84.4351C388.313 85.2407 388.838 86.4411 388.838 88.0361C388.838 88.8499 388.618 89.5824 388.179 90.2334C387.739 90.8844 387.096 91.389 386.25 91.7471C387.21 92.0075 387.951 92.4998 388.472 93.2241C389.001 93.9403 389.265 94.8029 389.265 95.812C389.265 97.4803 388.728 98.762 387.654 99.6572C386.588 100.552 385.058 101 383.064 101H376.582ZM379.67 92.98V98.5342H383.101C384.069 98.5342 384.826 98.2941 385.371 97.814C385.916 97.3338 386.189 96.6665 386.189 95.812C386.189 93.9647 385.245 93.0207 383.357 92.98H379.67ZM379.67 90.7095H382.698C383.658 90.7095 384.407 90.4938 384.944 90.0625C385.489 89.623 385.762 89.0046 385.762 88.207C385.762 87.3281 385.509 86.6934 385.005 86.3027C384.508 85.9121 383.731 85.7168 382.673 85.7168H379.67V90.7095ZM406.538 92.5771C406.538 94.3187 406.237 95.8486 405.635 97.167C405.033 98.4772 404.17 99.4863 403.047 100.194C401.932 100.894 400.646 101.244 399.189 101.244C397.749 101.244 396.463 100.894 395.332 100.194C394.209 99.4863 393.338 98.4813 392.72 97.1792C392.109 95.8771 391.8 94.3757 391.792 92.6748V91.6738C391.792 89.9404 392.097 88.4105 392.708 87.084C393.326 85.7575 394.193 84.7443 395.308 84.0444C396.431 83.3364 397.716 82.9824 399.165 82.9824C400.614 82.9824 401.895 83.3324 403.01 84.0322C404.133 84.724 405 85.7249 405.61 87.0352C406.221 88.3372 406.53 89.855 406.538 91.5884V92.5771ZM403.45 91.6494C403.45 89.68 403.075 88.1704 402.327 87.1206C401.586 86.0708 400.532 85.5459 399.165 85.5459C397.83 85.5459 396.785 86.0708 396.028 87.1206C395.279 88.1623 394.897 89.6393 394.88 91.5518V92.5771C394.88 94.5303 395.259 96.0399 396.016 97.106C396.781 98.172 397.839 98.7051 399.189 98.7051C400.557 98.7051 401.606 98.1842 402.339 97.1426C403.079 96.1009 403.45 94.5791 403.45 92.5771V91.6494ZM425.544 105.37H422.615V101H410.908V105.37H407.93L407.832 98.5342H409.26C409.968 97.8506 410.534 96.8577 410.957 95.5557C411.38 94.2454 411.653 92.7643 411.775 91.1123L412.239 83.2266H423.445V98.5342H425.703L425.544 105.37ZM412.751 98.5342H420.369V85.7168H415.181L414.888 90.7217C414.668 94.0664 413.956 96.6706 412.751 98.5342ZM441.292 95.2139C441.112 97.11 440.413 98.5911 439.192 99.6572C437.971 100.715 436.348 101.244 434.321 101.244C432.905 101.244 431.656 100.91 430.574 100.243C429.5 99.5677 428.669 98.6115 428.083 97.3745C427.498 96.1375 427.192 94.7012 427.168 93.0654V91.4053C427.168 89.7288 427.465 88.2518 428.059 86.9741C428.653 85.6965 429.504 84.7118 430.61 84.02C431.725 83.3283 433.011 82.9824 434.468 82.9824C436.429 82.9824 438.008 83.5155 439.204 84.5815C440.4 85.6476 441.096 87.1532 441.292 89.0981H438.215C438.069 87.8205 437.694 86.9009 437.092 86.3394C436.498 85.7697 435.623 85.4849 434.468 85.4849C433.125 85.4849 432.091 85.9772 431.367 86.9619C430.651 87.9385 430.285 89.3748 430.269 91.271V92.8457C430.269 94.7663 430.61 96.2311 431.294 97.2402C431.986 98.2493 432.995 98.7539 434.321 98.7539C435.534 98.7539 436.445 98.4813 437.056 97.936C437.666 97.3908 438.053 96.4834 438.215 95.2139H441.292ZM456.538 85.7168H450.996V101H447.932V85.7168H442.439V83.2266H456.538V85.7168ZM458.882 101V83.2266H464.973C466.983 83.2266 468.513 83.6294 469.563 84.4351C470.613 85.2407 471.138 86.4411 471.138 88.0361C471.138 88.8499 470.918 89.5824 470.479 90.2334C470.039 90.8844 469.396 91.389 468.55 91.7471C469.51 92.0075 470.251 92.4998 470.771 93.2241C471.3 93.9403 471.565 94.8029 471.565 95.812C471.565 97.4803 471.028 98.762 469.954 99.6572C468.888 100.552 467.358 101 465.364 101H458.882ZM461.97 92.98V98.5342H465.4C466.369 98.5342 467.126 98.2941 467.671 97.814C468.216 97.3338 468.489 96.6665 468.489 95.812C468.489 93.9647 467.545 93.0207 465.657 92.98H461.97ZM461.97 90.7095H464.998C465.958 90.7095 466.707 90.4938 467.244 90.0625C467.789 89.623 468.062 89.0046 468.062 88.207C468.062 87.3281 467.809 86.6934 467.305 86.3027C466.808 85.9121 466.031 85.7168 464.973 85.7168H461.97V90.7095ZM485.042 93.0654H477.742V98.5342H486.274V101H474.653V83.2266H486.189V85.7168H477.742V90.624H485.042V93.0654ZM502.9 101H499.824V93.1021H491.877V101H488.789V83.2266H491.877V90.624H499.824V83.2266H502.9V101ZM520.674 101H517.598V93.1021H509.651V101H506.562V83.2266H509.651V90.624H517.598V83.2266H520.674V101ZM538.521 92.5771C538.521 94.3187 538.219 95.8486 537.617 97.167C537.015 98.4772 536.152 99.4863 535.029 100.194C533.914 100.894 532.629 101.244 531.172 101.244C529.731 101.244 528.446 100.894 527.314 100.194C526.191 99.4863 525.321 98.4813 524.702 97.1792C524.092 95.8771 523.783 94.3757 523.774 92.6748V91.6738C523.774 89.9404 524.08 88.4105 524.69 87.084C525.308 85.7575 526.175 84.7443 527.29 84.0444C528.413 83.3364 529.699 82.9824 531.147 82.9824C532.596 82.9824 533.878 83.3324 534.993 84.0322C536.116 84.724 536.982 85.7249 537.593 87.0352C538.203 88.3372 538.512 89.855 538.521 91.5884V92.5771ZM535.432 91.6494C535.432 89.68 535.058 88.1704 534.309 87.1206C533.569 86.0708 532.515 85.5459 531.147 85.5459C529.813 85.5459 528.767 86.0708 528.01 87.1206C527.262 88.1623 526.879 89.6393 526.863 91.5518V92.5771C526.863 94.5303 527.241 96.0399 527.998 97.106C528.763 98.172 529.821 98.7051 531.172 98.7051C532.539 98.7051 533.589 98.1842 534.321 97.1426C535.062 96.1009 535.432 94.5791 535.432 92.5771V91.6494ZM551.985 93.0654H544.685V98.5342H553.218V101H541.597V83.2266H553.132V85.7168H544.685V90.624H551.985V93.0654ZM195.991 121.577C195.991 123.319 195.69 124.849 195.088 126.167C194.486 127.477 193.623 128.486 192.5 129.194C191.385 129.894 190.099 130.244 188.643 130.244C187.202 130.244 185.916 129.894 184.785 129.194C183.662 128.486 182.791 127.481 182.173 126.179C181.562 124.877 181.253 123.376 181.245 121.675V120.674C181.245 118.94 181.55 117.41 182.161 116.084C182.779 114.757 183.646 113.744 184.761 113.044C185.884 112.336 187.17 111.982 188.618 111.982C190.067 111.982 191.348 112.332 192.463 113.032C193.586 113.724 194.453 114.725 195.063 116.035C195.674 117.337 195.983 118.855 195.991 120.588V121.577ZM192.903 120.649C192.903 118.68 192.528 117.17 191.78 116.121C191.039 115.071 189.985 114.546 188.618 114.546C187.284 114.546 186.238 115.071 185.481 116.121C184.732 117.162 184.35 118.639 184.333 120.552V121.577C184.333 123.53 184.712 125.04 185.469 126.106C186.234 127.172 187.292 127.705 188.643 127.705C190.01 127.705 191.06 127.184 191.792 126.143C192.533 125.101 192.903 123.579 192.903 121.577V120.649ZM210.298 114.717H202.107V119.026H205.745C207.047 119.026 208.182 119.25 209.15 119.697C210.119 120.145 210.855 120.78 211.36 121.602C211.864 122.424 212.117 123.376 212.117 124.458C212.117 126.118 211.551 127.453 210.42 128.462C209.297 129.471 207.763 129.984 205.818 130H199.019V112.227H210.298V114.717ZM202.107 121.504V127.534H205.732C206.774 127.534 207.584 127.253 208.162 126.692C208.748 126.122 209.041 125.369 209.041 124.434C209.041 123.538 208.756 122.83 208.186 122.31C207.616 121.789 206.827 121.52 205.818 121.504H202.107ZM213.276 112.227H221.174V119.026H224.812C226.114 119.026 227.249 119.25 228.218 119.697C229.186 120.145 229.923 120.78 230.427 121.602C230.94 122.415 231.196 123.368 231.196 124.458C231.196 126.126 230.627 127.465 229.487 128.474C228.356 129.475 226.822 129.984 224.885 130H218.098V114.607H213.276V112.227ZM221.174 121.504V127.534H224.8C225.841 127.534 226.651 127.253 227.229 126.692C227.815 126.122 228.108 125.369 228.108 124.434C228.108 123.538 227.823 122.83 227.253 122.31C226.684 121.789 225.894 121.52 224.885 121.504H221.174ZM244.246 122.065H236.946V127.534H245.479V130H233.857V112.227H245.393V114.717H236.946V119.624H244.246V122.065ZM264.338 134.37H261.409V130H249.702V134.37H246.724L246.626 127.534H248.054C248.762 126.851 249.328 125.858 249.751 124.556C250.174 123.245 250.447 121.764 250.569 120.112L251.033 112.227H262.239V127.534H264.497L264.338 134.37ZM251.545 127.534H259.163V114.717H253.975L253.682 119.722C253.462 123.066 252.75 125.671 251.545 127.534ZM277.705 112.227H280.793V130H277.705V117.341L269.905 130H266.816V112.227H269.905V124.897L277.705 112.227ZM298.604 130H295.527V122.102H287.581V130H284.492V112.227H287.581V119.624H295.527V112.227H298.604V130ZM312.654 122.065H305.354V127.534H313.887V130H302.266V112.227H313.801V114.717H305.354V119.624H312.654V122.065ZM330.513 130H327.437V122.102H319.49V130H316.401V112.227H319.49V119.624H327.437V112.227H330.513V130ZM345.063 112.227H348.152V130H345.063V117.341L337.263 130H334.175V112.227H337.263V124.897L345.063 112.227ZM362.239 122.065H354.939V127.534H363.472V130H351.851V112.227H363.386V114.717H354.939V119.624H362.239V122.065ZM380.171 116.792H383.125V130H380.171V121.187L374.995 130H372.041V116.792H374.995V125.605L380.171 116.792ZM394.124 126.35L398.03 116.792H401.741V130H398.774V121.26L395.137 130H393.123L389.473 121.211V130H386.506V116.792H390.242L394.124 126.35ZM415.596 112.227L420.723 125.85L425.837 112.227H429.829V130H426.753V124.141L427.058 116.304L421.809 130H419.6L414.363 116.316L414.668 124.141V130H411.592V112.227H415.596ZM435.054 126.875C435.607 126.875 436.034 127.034 436.335 127.351C436.637 127.66 436.787 128.051 436.787 128.523C436.787 128.987 436.637 129.373 436.335 129.683C436.034 129.984 435.607 130.134 435.054 130.134C434.525 130.134 434.106 129.984 433.796 129.683C433.487 129.382 433.333 128.995 433.333 128.523C433.333 128.051 433.483 127.66 433.784 127.351C434.085 127.034 434.508 126.875 435.054 126.875ZM440.474 130V112.227H446.565C448.575 112.227 450.105 112.629 451.155 113.435C452.205 114.241 452.729 115.441 452.729 117.036C452.729 117.85 452.51 118.582 452.07 119.233C451.631 119.884 450.988 120.389 450.142 120.747C451.102 121.007 451.842 121.5 452.363 122.224C452.892 122.94 453.157 123.803 453.157 124.812C453.157 126.48 452.62 127.762 451.545 128.657C450.479 129.552 448.949 130 446.956 130H440.474ZM443.562 121.98V127.534H446.992C447.961 127.534 448.717 127.294 449.263 126.814C449.808 126.334 450.081 125.667 450.081 124.812C450.081 122.965 449.137 122.021 447.249 121.98H443.562ZM443.562 119.709H446.589C447.55 119.709 448.298 119.494 448.835 119.062C449.381 118.623 449.653 118.005 449.653 117.207C449.653 116.328 449.401 115.693 448.896 115.303C448.4 114.912 447.623 114.717 446.565 114.717H443.562V119.709ZM457.808 126.875C458.361 126.875 458.788 127.034 459.089 127.351C459.39 127.66 459.541 128.051 459.541 128.523C459.541 128.987 459.39 129.373 459.089 129.683C458.788 129.984 458.361 130.134 457.808 130.134C457.279 130.134 456.86 129.984 456.55 129.683C456.241 129.382 456.086 128.995 456.086 128.523C456.086 128.051 456.237 127.66 456.538 127.351C456.839 127.034 457.262 126.875 457.808 126.875ZM479.146 113.911H479.414C480.781 113.911 482.022 114.22 483.137 114.839C484.26 115.449 485.131 116.312 485.75 117.427C486.376 118.542 486.689 119.795 486.689 121.187C486.689 122.57 486.376 123.815 485.75 124.922C485.131 126.021 484.268 126.875 483.162 127.485C482.063 128.096 480.83 128.405 479.463 128.413H479.146V130.732H476.179V128.413H475.886C474.511 128.413 473.262 128.108 472.139 127.498C471.016 126.879 470.145 126.021 469.526 124.922C468.916 123.823 468.611 122.586 468.611 121.211C468.611 119.819 468.92 118.566 469.539 117.451C470.157 116.336 471.024 115.47 472.139 114.851C473.254 114.224 474.503 113.911 475.886 113.911H476.179V111.494H479.146V113.911ZM475.886 116.389C474.519 116.389 473.449 116.816 472.676 117.671C471.911 118.525 471.528 119.705 471.528 121.211C471.528 122.676 471.911 123.831 472.676 124.678C473.441 125.516 474.523 125.935 475.923 125.935H476.179V116.389H475.886ZM479.146 116.389V125.935H479.438C480.806 125.935 481.868 125.508 482.625 124.653C483.389 123.799 483.772 122.643 483.772 121.187C483.772 119.697 483.389 118.525 482.625 117.671C481.868 116.816 480.793 116.389 479.402 116.389H479.146ZM492.463 123.396V130H489.375V112.227H496.174C498.16 112.227 499.735 112.743 500.898 113.777C502.07 114.81 502.656 116.178 502.656 117.878C502.656 119.62 502.083 120.975 500.935 121.943C499.796 122.912 498.197 123.396 496.138 123.396H492.463ZM492.463 120.918H496.174C497.273 120.918 498.111 120.662 498.689 120.149C499.267 119.628 499.556 118.879 499.556 117.903C499.556 116.943 499.263 116.178 498.677 115.608C498.091 115.03 497.285 114.733 496.26 114.717H492.463V120.918ZM511.763 121.516L515.327 112.227H518.757L512.568 126.973L512.007 128.083C511.193 129.532 509.875 130.256 508.052 130.256L506.782 130.183L506.807 127.742C507.002 127.774 507.348 127.791 507.844 127.791C508.723 127.791 509.342 127.416 509.7 126.667L510.334 125.166L504.255 112.227H507.625L511.763 121.516ZM535.225 130H532.148V122.102H524.202V130H521.113V112.227H524.202V119.624H532.148V112.227H535.225V130ZM547.773 117.073C547.773 116.275 547.472 115.64 546.87 115.168C546.268 114.696 545.45 114.46 544.417 114.46C543.529 114.46 542.789 114.696 542.195 115.168C541.601 115.632 541.304 116.235 541.304 116.975H538.228C538.228 116.007 538.496 115.144 539.033 114.387C539.57 113.63 540.315 113.044 541.267 112.629C542.219 112.206 543.269 111.995 544.417 111.995C546.451 111.995 548.03 112.438 549.153 113.325C550.284 114.212 550.85 115.453 550.85 117.048C550.85 117.854 550.605 118.595 550.117 119.27C549.629 119.945 548.945 120.479 548.066 120.869C549.059 121.211 549.816 121.732 550.337 122.432C550.866 123.123 551.13 123.986 551.13 125.02C551.13 126.615 550.52 127.884 549.299 128.828C548.079 129.764 546.451 130.232 544.417 130.232C543.163 130.232 542.028 130.008 541.011 129.561C540.002 129.113 539.241 128.503 538.728 127.729C538.223 126.956 537.971 126.069 537.971 125.068H541.047C541.047 125.833 541.365 126.48 542 127.009C542.634 127.53 543.44 127.791 544.417 127.791C545.507 127.791 546.382 127.534 547.041 127.021C547.708 126.509 548.042 125.841 548.042 125.02C548.042 124.019 547.749 123.294 547.163 122.847C546.585 122.391 545.735 122.163 544.612 122.163H542.524V119.722H544.502C546.683 119.722 547.773 118.839 547.773 117.073ZM564.387 122.065H557.087V127.534H565.62V130H553.999V112.227H565.535V114.717H557.087V119.624H564.387V122.065Z" fill="white"/>
</svg>
