<svg width="35" height="35" viewBox="0 0 35 35" fill="none" xmlns="http://www.w3.org/2000/svg">
<path d="M0 3.18182V31.8182C0 33.5761 1.42386 35 3.18182 35H31.8182C33.5761 35 35 33.5761 35 31.8182V3.18182C35 1.42387 33.5761 0 31.8182 0H3.18182C1.42387 0 0 1.42386 0 3.18182ZM15.443 6.82977L24.9884 16.3752C25.6105 16.9973 25.6105 18.0027 24.9884 18.6248L15.443 28.1702C15.1327 28.4805 14.7255 28.6364 14.3182 28.6364C13.9109 28.6364 13.5036 28.4805 13.1934 28.1702C12.5714 27.5482 12.5714 26.5427 13.1934 25.9207L21.6141 17.5L13.1934 9.07932C12.5714 8.45728 12.5714 7.45182 13.1934 6.82978C13.8155 6.20773 14.8209 6.20773 15.443 6.82978L15.443 6.82977Z" fill="#02409F"/>
</svg>
