<svg width="36" height="40" viewBox="0 0 36 40" fill="none" xmlns="http://www.w3.org/2000/svg">
<path d="M17.669 0C16.078 0 14.6412 0.755864 12.651 1.80235C10.0882 3.15002 6.57541 4.99608 0.630589 6.30118L0 6.43922V7.08549C0 31.5531 17.1583 39.7574 17.3318 39.8369L17.6863 40L18.0329 39.8227C18.2064 39.7344 35.338 30.7379 35.338 7.08549V6.43922L34.7075 6.30118C28.7626 4.99608 25.2499 3.15002 22.6871 1.80235C20.6969 0.755867 19.26 2.33091e-06 17.669 2.33091e-06L17.669 0ZM17.669 8.75608C20.3194 8.75608 22.4878 11.0042 22.4878 13.7349V15.1812H23.371C24.2544 15.1812 24.8973 15.9043 24.8973 16.7075V24.8988C24.8973 25.702 24.1741 26.4251 23.371 26.4251H11.9671C11.0836 26.4251 10.4408 25.7023 10.4408 24.8188V16.7075C10.4408 15.9043 11.0836 15.1812 11.9671 15.1812H12.8502V13.7349C12.8502 11.0042 15.0187 8.75608 17.669 8.75608L17.669 8.75608ZM17.669 10.3624C15.9021 10.3624 14.4565 11.8877 14.4565 13.7349V15.1812H20.8816V13.7349C20.8816 11.8877 19.4359 10.3624 17.669 10.3624ZM17.669 19.1969C17.0265 19.1969 16.5443 19.6791 16.5443 20.3216C16.5443 20.6428 16.7049 20.8838 16.9459 21.1247V22.1678C16.9459 22.5694 17.2675 22.891 17.669 22.891C18.0706 22.891 18.3922 22.5694 18.3922 22.1678V21.1247C18.6331 20.8838 18.7937 20.6428 18.7937 20.3216C18.7937 19.6791 18.3115 19.1969 17.669 19.1969Z" fill="#C2767D"/>
</svg>
