<svg width="113" height="103" viewBox="0 0 113 103" fill="none" xmlns="http://www.w3.org/2000/svg">
<path fill-rule="evenodd" clip-rule="evenodd" d="M56.0408 0H36.5827H34.1262V2.45028V2.46721V2.48421V2.50128V2.51842V2.53563V2.55291V2.57025V2.58767V2.60515V2.6227V2.64032V2.65801V2.67576V2.69357V2.71146V2.72941V2.74742V2.7655V2.78364V2.80185V2.82012V2.83845V2.85685V2.87531V2.89383V2.91241V2.93106V2.94976V2.96853V2.98736V3.00624V3.02519V3.04419V3.06326V3.08238V3.10156V3.1208V3.14009V3.15944V3.17885V3.19832V3.21784V3.23742V3.25705V3.27673V3.29647V3.31627V3.33612V3.35602V3.37598V3.39598V3.41604V3.43615V3.45632V3.47653V3.4968V3.51711V3.53748V3.55789V3.57836V3.59887V3.61943V3.64004V3.6607V3.6814V3.70215V3.72295V3.7438V3.76469V3.78562V3.80661V3.82763V3.8487V3.86982V3.89098V3.91218V3.93343V3.95471V3.97605V3.99742V4.01883V4.04029V4.06178V4.08332V4.1049V4.12651V4.14817V4.16986V4.19159V4.21337V4.23517V4.25702V4.2789V4.30083V4.32278V4.34478V4.3668V4.38887V4.41097V4.4331V4.45527V4.47747V4.49971V4.52197V4.54427V4.56661V4.58897V4.61137V4.6338V4.65626V4.67875V4.70127V4.72382V4.7464V4.769V4.79164V4.81431V4.837V4.85972V4.88247V4.90524V4.92804V4.95087V4.97372V4.9966V5.01951V5.04243V5.06539V5.08836V5.11136V5.13439V5.15743V5.1805V5.20359V5.2267V5.24984V5.27299V5.29617V5.31936V5.34258V5.36581V5.38907V5.41234V5.43563V5.45894V5.48227V5.50561V5.52897V5.55235V5.57574V5.59915V5.62258V5.64602V5.66947V5.69294V5.71643V5.73992V5.76343V5.78696V5.81049V5.83404V5.8576V5.88117V5.90475V5.92835V5.95195V5.97556V5.99919V6.02282V6.04646V6.07011V6.09377V6.11743V6.1411V6.16478V6.18847V6.21216V6.23586V6.25956V6.28327V6.30699V6.33071V6.35443V6.37816V6.40189V6.42562V6.44935V6.47309V6.49683V6.52057V6.54431V6.56806V6.5918V6.61554V6.63929V6.66303V6.68677V6.71051V6.73425V6.75799V6.78172V6.80545V6.82918V6.8529V6.87662V6.90033V6.92405V6.94775V6.97145V6.99514V7.01883V7.04251V7.06619V7.08986V7.11352V7.13717V7.16081V7.18444V7.20807V7.23169V7.25529V7.27889V7.30247V7.32604V7.34961V7.37316V7.3967V7.42022V7.44374V7.46724V7.49072V7.5142V7.53766V7.5611V7.58453V7.60794V7.63134V7.65472V7.67809V7.70144V7.72477V7.74808V7.77138V7.79465V7.81791V7.84115V7.86437V7.88757V7.91075V7.93391V7.95705V7.98017V8.00326V8.02634V8.04939V8.07242V8.09542V8.11841V8.14136V8.1643V8.18721V8.21009V8.23295V8.25578V8.27859V8.30137V8.32413V8.34686V8.36956V8.39223V8.41487V8.43749V8.46007V8.48263V8.50516V8.52765V8.55012V8.57256V8.59496V8.61734V8.63968V8.66199V8.68426V8.7065V8.72871V8.75089V8.77303V8.79514V8.81721V8.83925V8.86125V8.88322V8.90515V8.92704V8.9489V8.97071V8.9925V9.01424V9.03594V9.05761V9.07923V9.10082V9.12236V9.14387V9.16534V9.18676V9.20814V9.22948V9.25078V9.27204V9.29325V9.31442V9.33555V9.35663V9.37767V9.39866V9.41961V9.44051V9.46136V9.48217V9.50294V9.52365V9.54432V9.56495V9.58552V9.60604V9.62652V9.64695V9.66732V9.68765V9.70793V9.72816V9.74833V9.76846V9.78853V9.80855V9.82852V9.84843V9.86829V9.8881V9.90786V9.92756V9.9472V9.96679V9.98633V10.0058V10.0252V10.0446V10.0639V10.0832V10.1023V10.1215V10.1406V10.1596V10.1785V10.1974V10.2163V10.2351V10.2538V10.2724V10.291V10.3096V10.3281V10.3465V10.3648V10.3831V10.4013V10.4195V10.4376V10.4556V10.4736V10.4915V10.5093V10.5271V10.5448V10.5591H16.7043C7.47879 10.5591 0 18.0189 0 27.2211V65.2551C0 74.4572 7.47879 81.917 16.7043 81.917H29.2662V77.0164H16.7043C10.1922 77.0164 4.91304 71.7507 4.91304 65.2551V27.2211C4.91304 20.7254 10.1922 15.4597 16.7043 15.4597H36.5827H38.2086V4.07205H53.6839L56.0408 0ZM96.2957 81.917H84.5468V77.0164H96.2957C102.808 77.0164 108.087 71.7507 108.087 65.2551V27.2211C108.087 20.7254 102.808 15.4597 96.2956 15.4597H76.8237H75.6043V4.07205H59.3161L56.9591 0H77.2302H79.6867V2.45028V10.5591H96.2956C105.521 10.5591 113 18.0189 113 27.2211V65.2551C113 74.4572 105.521 81.917 96.2957 81.917ZM24.3885 103C24.3885 103 34.805 88.3744 35.3633 77.8626C35.8542 68.6187 30.4856 59.2122 30.4856 59.2122V34.8857H45.9317V28.804L56.5 12.5863L67.4748 28.804V34.8857H82.1079V59.2122C82.1079 59.2122 77.662 69.3665 77.6367 76.2408C77.5945 87.7197 89.8309 103 89.8309 103H65.8489V94.4857C65.8489 94.4857 66.2554 85.9714 56.9065 85.9714C47.5575 85.9714 47.964 94.4857 47.964 94.4857V103H24.3885Z" fill="white"/>
</svg>
